<mxfile host="app.diagrams.net" modified="2022-11-29T07:33:26.555Z" agent="5.0 (Windows NT 10.0; Win64; x64) AppleWebKit/537.36 (KHTML, like Gecko) Chrome/107.0.0.0 Safari/537.36 Edg/107.0.1418.56" version="20.6.0" etag="e4UkinBXxhwUtxtl4qQg" type="github">
  <diagram id="tR3XoD3DEGh_v77hpuWb" name="第 1 页">
    <mxGraphModel dx="2249" dy="1973" grid="1" gridSize="10" guides="1" tooltips="1" connect="1" arrows="1" fold="1" page="1" pageScale="1" pageWidth="827" pageHeight="1169" math="0" shadow="0">
      <root>
        <mxCell id="0" />
        <mxCell id="1" parent="0" />
        <mxCell id="Ee5MRmjMs7288bCg43-E-31" style="edgeStyle=orthogonalEdgeStyle;rounded=0;orthogonalLoop=1;jettySize=auto;html=1;exitX=0.5;exitY=1;exitDx=0;exitDy=0;entryX=0.5;entryY=0;entryDx=0;entryDy=0;" edge="1" parent="1" source="Ee5MRmjMs7288bCg43-E-1" target="Ee5MRmjMs7288bCg43-E-30">
          <mxGeometry relative="1" as="geometry" />
        </mxCell>
        <mxCell id="Ee5MRmjMs7288bCg43-E-1" value="导入单位数据 Excel 文档" style="rounded=0;whiteSpace=wrap;html=1;" vertex="1" parent="1">
          <mxGeometry x="354" y="-220" width="120" height="60" as="geometry" />
        </mxCell>
        <mxCell id="Ee5MRmjMs7288bCg43-E-4" style="edgeStyle=orthogonalEdgeStyle;rounded=0;orthogonalLoop=1;jettySize=auto;html=1;exitX=0.5;exitY=1;exitDx=0;exitDy=0;entryX=0.5;entryY=0;entryDx=0;entryDy=0;" edge="1" parent="1" source="Ee5MRmjMs7288bCg43-E-2" target="Ee5MRmjMs7288bCg43-E-14">
          <mxGeometry relative="1" as="geometry">
            <mxPoint x="39" y="360" as="targetPoint" />
            <Array as="points" />
          </mxGeometry>
        </mxCell>
        <mxCell id="Ee5MRmjMs7288bCg43-E-9" value="是" style="edgeLabel;html=1;align=center;verticalAlign=middle;resizable=0;points=[];" vertex="1" connectable="0" parent="Ee5MRmjMs7288bCg43-E-4">
          <mxGeometry x="0.25" y="3" relative="1" as="geometry">
            <mxPoint as="offset" />
          </mxGeometry>
        </mxCell>
        <mxCell id="Ee5MRmjMs7288bCg43-E-6" style="edgeStyle=orthogonalEdgeStyle;rounded=0;orthogonalLoop=1;jettySize=auto;html=1;exitX=1;exitY=0.5;exitDx=0;exitDy=0;entryX=0;entryY=0.5;entryDx=0;entryDy=0;" edge="1" parent="1" source="Ee5MRmjMs7288bCg43-E-2" target="Ee5MRmjMs7288bCg43-E-5">
          <mxGeometry relative="1" as="geometry" />
        </mxCell>
        <mxCell id="Ee5MRmjMs7288bCg43-E-8" value="否" style="edgeLabel;html=1;align=center;verticalAlign=middle;resizable=0;points=[];" vertex="1" connectable="0" parent="Ee5MRmjMs7288bCg43-E-6">
          <mxGeometry x="-0.3019" relative="1" as="geometry">
            <mxPoint as="offset" />
          </mxGeometry>
        </mxCell>
        <mxCell id="Ee5MRmjMs7288bCg43-E-2" value="单位是否唯一" style="rhombus;whiteSpace=wrap;html=1;" vertex="1" parent="1">
          <mxGeometry x="-1" y="240" width="80" height="80" as="geometry" />
        </mxCell>
        <mxCell id="Ee5MRmjMs7288bCg43-E-5" value="报错" style="rounded=0;whiteSpace=wrap;html=1;fillColor=#f8cecc;strokeColor=#b85450;" vertex="1" parent="1">
          <mxGeometry x="165" y="250" width="120" height="60" as="geometry" />
        </mxCell>
        <mxCell id="Ee5MRmjMs7288bCg43-E-10" value="编辑" style="rounded=0;whiteSpace=wrap;html=1;" vertex="1" parent="1">
          <mxGeometry x="-215" y="650" width="120" height="60" as="geometry" />
        </mxCell>
        <mxCell id="Ee5MRmjMs7288bCg43-E-11" value="新增" style="rounded=0;whiteSpace=wrap;html=1;" vertex="1" parent="1">
          <mxGeometry x="-21" y="650" width="120" height="60" as="geometry" />
        </mxCell>
        <mxCell id="Ee5MRmjMs7288bCg43-E-12" value="新增" style="rounded=0;whiteSpace=wrap;html=1;" vertex="1" parent="1">
          <mxGeometry x="195" y="650" width="120" height="60" as="geometry" />
        </mxCell>
        <mxCell id="Ee5MRmjMs7288bCg43-E-23" style="edgeStyle=orthogonalEdgeStyle;rounded=0;orthogonalLoop=1;jettySize=auto;html=1;exitX=0;exitY=0.5;exitDx=0;exitDy=0;" edge="1" parent="1" source="Ee5MRmjMs7288bCg43-E-13" target="Ee5MRmjMs7288bCg43-E-10">
          <mxGeometry relative="1" as="geometry" />
        </mxCell>
        <mxCell id="Ee5MRmjMs7288bCg43-E-24" style="edgeStyle=orthogonalEdgeStyle;rounded=0;orthogonalLoop=1;jettySize=auto;html=1;exitX=0.5;exitY=1;exitDx=0;exitDy=0;" edge="1" parent="1" source="Ee5MRmjMs7288bCg43-E-13" target="Ee5MRmjMs7288bCg43-E-11">
          <mxGeometry relative="1" as="geometry" />
        </mxCell>
        <mxCell id="Ee5MRmjMs7288bCg43-E-25" style="edgeStyle=orthogonalEdgeStyle;rounded=0;orthogonalLoop=1;jettySize=auto;html=1;exitX=1;exitY=0.5;exitDx=0;exitDy=0;" edge="1" parent="1" source="Ee5MRmjMs7288bCg43-E-13" target="Ee5MRmjMs7288bCg43-E-12">
          <mxGeometry relative="1" as="geometry" />
        </mxCell>
        <mxCell id="Ee5MRmjMs7288bCg43-E-13" value="数据操作" style="rhombus;whiteSpace=wrap;html=1;" vertex="1" parent="1">
          <mxGeometry x="-1" y="470" width="80" height="80" as="geometry" />
        </mxCell>
        <mxCell id="Ee5MRmjMs7288bCg43-E-15" style="edgeStyle=orthogonalEdgeStyle;rounded=0;orthogonalLoop=1;jettySize=auto;html=1;exitX=0.5;exitY=1;exitDx=0;exitDy=0;" edge="1" parent="1" source="Ee5MRmjMs7288bCg43-E-14" target="Ee5MRmjMs7288bCg43-E-13">
          <mxGeometry relative="1" as="geometry" />
        </mxCell>
        <mxCell id="Ee5MRmjMs7288bCg43-E-14" value="数据操作" style="rounded=0;whiteSpace=wrap;html=1;" vertex="1" parent="1">
          <mxGeometry x="-21" y="370" width="120" height="60" as="geometry" />
        </mxCell>
        <mxCell id="Ee5MRmjMs7288bCg43-E-18" style="edgeStyle=orthogonalEdgeStyle;rounded=0;orthogonalLoop=1;jettySize=auto;html=1;exitX=0.5;exitY=1;exitDx=0;exitDy=0;entryX=0.5;entryY=0;entryDx=0;entryDy=0;" edge="1" parent="1" source="Ee5MRmjMs7288bCg43-E-16" target="Ee5MRmjMs7288bCg43-E-2">
          <mxGeometry relative="1" as="geometry" />
        </mxCell>
        <mxCell id="Ee5MRmjMs7288bCg43-E-20" style="edgeStyle=orthogonalEdgeStyle;rounded=0;orthogonalLoop=1;jettySize=auto;html=1;exitX=1;exitY=0.5;exitDx=0;exitDy=0;entryX=0;entryY=0.5;entryDx=0;entryDy=0;" edge="1" parent="1" source="Ee5MRmjMs7288bCg43-E-16" target="Ee5MRmjMs7288bCg43-E-21">
          <mxGeometry relative="1" as="geometry">
            <mxPoint x="155" y="130" as="targetPoint" />
          </mxGeometry>
        </mxCell>
        <mxCell id="Ee5MRmjMs7288bCg43-E-16" value="单位名称是否填写" style="rhombus;whiteSpace=wrap;html=1;" vertex="1" parent="1">
          <mxGeometry x="-1" y="90" width="80" height="80" as="geometry" />
        </mxCell>
        <mxCell id="Ee5MRmjMs7288bCg43-E-19" value="是" style="text;html=1;align=center;verticalAlign=middle;resizable=0;points=[];autosize=1;strokeColor=none;fillColor=none;" vertex="1" parent="1">
          <mxGeometry x="25" y="190" width="40" height="30" as="geometry" />
        </mxCell>
        <mxCell id="Ee5MRmjMs7288bCg43-E-21" value="&lt;div data-docx-has-block-data=&quot;false&quot; data-page-id=&quot;doxcnUg7UYMPqlSIyXwDWfKtBhc&quot;&gt;&lt;div class=&quot;ace-line ace-line old-record-id-doxcnEmQ2aUY8U2KQ4J9b7pMEVh&quot; style=&quot;&quot;&gt;第X行。单位名称未填写，请填写后提交。&lt;/div&gt;&lt;/div&gt;&lt;span class=&quot;lark-record-clipboard&quot; data-lark-record-format=&quot;docx/text&quot; data-lark-record-data=&quot;{&amp;quot;rootId&amp;quot;:&amp;quot;doxcnUg7UYMPqlSIyXwDWfKtBhc&amp;quot;,&amp;quot;text&amp;quot;:{&amp;quot;initialAttributedTexts&amp;quot;:{&amp;quot;text&amp;quot;:{&amp;quot;0&amp;quot;:&amp;quot;第X行。单位名称未填写，请填写后提交。&amp;quot;},&amp;quot;attribs&amp;quot;:{&amp;quot;0&amp;quot;:&amp;quot;*0+j&amp;quot;}},&amp;quot;apool&amp;quot;:{&amp;quot;numToAttrib&amp;quot;:{&amp;quot;0&amp;quot;:[&amp;quot;author&amp;quot;,&amp;quot;7049226964187480066&amp;quot;]},&amp;quot;nextNum&amp;quot;:1}},&amp;quot;type&amp;quot;:&amp;quot;text&amp;quot;,&amp;quot;referenceRecordMap&amp;quot;:{},&amp;quot;extra&amp;quot;:{&amp;quot;mention_page_title&amp;quot;:{},&amp;quot;external_mention_url&amp;quot;:{}},&amp;quot;isKeepQuoteContainer&amp;quot;:false,&amp;quot;isFromCode&amp;quot;:false,&amp;quot;selection&amp;quot;:[{&amp;quot;id&amp;quot;:1011,&amp;quot;type&amp;quot;:&amp;quot;text&amp;quot;,&amp;quot;selection&amp;quot;:{&amp;quot;start&amp;quot;:0,&amp;quot;end&amp;quot;:19},&amp;quot;recordId&amp;quot;:&amp;quot;doxcnEmQ2aUY8U2KQ4J9b7pMEVh&amp;quot;}],&amp;quot;isCut&amp;quot;:false}&quot;&gt;&lt;/span&gt;" style="rounded=0;whiteSpace=wrap;html=1;fillColor=#f8cecc;strokeColor=#b85450;" vertex="1" parent="1">
          <mxGeometry x="165" y="100" width="120" height="60" as="geometry" />
        </mxCell>
        <mxCell id="Ee5MRmjMs7288bCg43-E-22" value="否" style="text;html=1;align=center;verticalAlign=middle;resizable=0;points=[];autosize=1;strokeColor=none;fillColor=none;" vertex="1" parent="1">
          <mxGeometry x="95" y="110" width="40" height="30" as="geometry" />
        </mxCell>
        <mxCell id="Ee5MRmjMs7288bCg43-E-26" value="&lt;span style=&quot;&quot;&gt;单位名称、类别相同&lt;/span&gt;" style="text;html=1;align=center;verticalAlign=middle;resizable=0;points=[];autosize=1;strokeColor=none;fillColor=none;" vertex="1" parent="1">
          <mxGeometry x="-220" y="550" width="130" height="30" as="geometry" />
        </mxCell>
        <mxCell id="Ee5MRmjMs7288bCg43-E-28" value="&lt;span style=&quot;&quot;&gt;单位名称相同，类别不相同&lt;/span&gt;" style="text;html=1;align=center;verticalAlign=middle;resizable=0;points=[];autosize=1;strokeColor=none;fillColor=none;" vertex="1" parent="1">
          <mxGeometry x="-46" y="560" width="170" height="30" as="geometry" />
        </mxCell>
        <mxCell id="Ee5MRmjMs7288bCg43-E-29" value="&lt;span style=&quot;&quot;&gt;单位名称不同&lt;/span&gt;" style="text;html=1;align=center;verticalAlign=middle;resizable=0;points=[];autosize=1;strokeColor=none;fillColor=none;" vertex="1" parent="1">
          <mxGeometry x="200" y="550" width="100" height="30" as="geometry" />
        </mxCell>
        <mxCell id="Ee5MRmjMs7288bCg43-E-32" style="edgeStyle=orthogonalEdgeStyle;rounded=0;orthogonalLoop=1;jettySize=auto;html=1;exitX=0;exitY=0.5;exitDx=0;exitDy=0;entryX=0.5;entryY=0;entryDx=0;entryDy=0;" edge="1" parent="1" source="Ee5MRmjMs7288bCg43-E-30" target="Ee5MRmjMs7288bCg43-E-16">
          <mxGeometry relative="1" as="geometry" />
        </mxCell>
        <mxCell id="Ee5MRmjMs7288bCg43-E-48" value="单位名称" style="edgeLabel;html=1;align=center;verticalAlign=middle;resizable=0;points=[];" vertex="1" connectable="0" parent="Ee5MRmjMs7288bCg43-E-32">
          <mxGeometry x="0.7726" y="-2" relative="1" as="geometry">
            <mxPoint as="offset" />
          </mxGeometry>
        </mxCell>
        <mxCell id="Ee5MRmjMs7288bCg43-E-40" style="edgeStyle=orthogonalEdgeStyle;rounded=0;orthogonalLoop=1;jettySize=auto;html=1;exitX=0.5;exitY=1;exitDx=0;exitDy=0;" edge="1" parent="1" source="Ee5MRmjMs7288bCg43-E-30" target="Ee5MRmjMs7288bCg43-E-38">
          <mxGeometry relative="1" as="geometry" />
        </mxCell>
        <mxCell id="Ee5MRmjMs7288bCg43-E-47" value="所属类别" style="edgeLabel;html=1;align=center;verticalAlign=middle;resizable=0;points=[];" vertex="1" connectable="0" parent="Ee5MRmjMs7288bCg43-E-40">
          <mxGeometry x="-0.24" y="2" relative="1" as="geometry">
            <mxPoint as="offset" />
          </mxGeometry>
        </mxCell>
        <mxCell id="Ee5MRmjMs7288bCg43-E-42" style="edgeStyle=orthogonalEdgeStyle;rounded=0;orthogonalLoop=1;jettySize=auto;html=1;exitX=1;exitY=0.5;exitDx=0;exitDy=0;" edge="1" parent="1" source="Ee5MRmjMs7288bCg43-E-30" target="Ee5MRmjMs7288bCg43-E-41">
          <mxGeometry relative="1" as="geometry" />
        </mxCell>
        <mxCell id="Ee5MRmjMs7288bCg43-E-44" value="备注" style="edgeLabel;html=1;align=center;verticalAlign=middle;resizable=0;points=[];" vertex="1" connectable="0" parent="Ee5MRmjMs7288bCg43-E-42">
          <mxGeometry x="0.6098" y="3" relative="1" as="geometry">
            <mxPoint as="offset" />
          </mxGeometry>
        </mxCell>
        <mxCell id="Ee5MRmjMs7288bCg43-E-45" style="edgeStyle=orthogonalEdgeStyle;rounded=0;orthogonalLoop=1;jettySize=auto;html=1;exitX=1;exitY=0.5;exitDx=0;exitDy=0;entryX=0.5;entryY=0;entryDx=0;entryDy=0;" edge="1" parent="1" source="Ee5MRmjMs7288bCg43-E-30" target="Ee5MRmjMs7288bCg43-E-35">
          <mxGeometry relative="1" as="geometry" />
        </mxCell>
        <mxCell id="Ee5MRmjMs7288bCg43-E-46" value="单位符号" style="edgeLabel;html=1;align=center;verticalAlign=middle;resizable=0;points=[];" vertex="1" connectable="0" parent="Ee5MRmjMs7288bCg43-E-45">
          <mxGeometry x="0.7374" y="-3" relative="1" as="geometry">
            <mxPoint as="offset" />
          </mxGeometry>
        </mxCell>
        <mxCell id="Ee5MRmjMs7288bCg43-E-30" value="数据列校验" style="rhombus;whiteSpace=wrap;html=1;" vertex="1" parent="1">
          <mxGeometry x="374" y="-90" width="80" height="80" as="geometry" />
        </mxCell>
        <mxCell id="Ee5MRmjMs7288bCg43-E-53" style="edgeStyle=orthogonalEdgeStyle;rounded=0;orthogonalLoop=1;jettySize=auto;html=1;exitX=0.5;exitY=1;exitDx=0;exitDy=0;" edge="1" parent="1" source="Ee5MRmjMs7288bCg43-E-35" target="Ee5MRmjMs7288bCg43-E-52">
          <mxGeometry relative="1" as="geometry" />
        </mxCell>
        <mxCell id="Ee5MRmjMs7288bCg43-E-35" value="是否填写" style="rhombus;whiteSpace=wrap;html=1;" vertex="1" parent="1">
          <mxGeometry x="670" y="90" width="80" height="80" as="geometry" />
        </mxCell>
        <mxCell id="Ee5MRmjMs7288bCg43-E-51" style="edgeStyle=orthogonalEdgeStyle;rounded=0;orthogonalLoop=1;jettySize=auto;html=1;exitX=0.5;exitY=1;exitDx=0;exitDy=0;entryX=0.45;entryY=0;entryDx=0;entryDy=0;entryPerimeter=0;" edge="1" parent="1" source="Ee5MRmjMs7288bCg43-E-38" target="Ee5MRmjMs7288bCg43-E-50">
          <mxGeometry relative="1" as="geometry" />
        </mxCell>
        <mxCell id="Ee5MRmjMs7288bCg43-E-38" value="类别是否存在" style="rhombus;whiteSpace=wrap;html=1;" vertex="1" parent="1">
          <mxGeometry x="374" y="90" width="80" height="80" as="geometry" />
        </mxCell>
        <mxCell id="Ee5MRmjMs7288bCg43-E-55" style="edgeStyle=orthogonalEdgeStyle;rounded=0;orthogonalLoop=1;jettySize=auto;html=1;exitX=0.5;exitY=1;exitDx=0;exitDy=0;entryX=0.5;entryY=0;entryDx=0;entryDy=0;" edge="1" parent="1" source="Ee5MRmjMs7288bCg43-E-41" target="Ee5MRmjMs7288bCg43-E-54">
          <mxGeometry relative="1" as="geometry" />
        </mxCell>
        <mxCell id="Ee5MRmjMs7288bCg43-E-41" value="字数限制50" style="rhombus;whiteSpace=wrap;html=1;" vertex="1" parent="1">
          <mxGeometry x="520" y="90" width="80" height="80" as="geometry" />
        </mxCell>
        <mxCell id="Ee5MRmjMs7288bCg43-E-50" value="&lt;div data-docx-has-block-data=&quot;false&quot; data-page-id=&quot;doxcnUg7UYMPqlSIyXwDWfKtBhc&quot;&gt;&lt;div class=&quot;ace-line ace-line old-record-id-doxcnKc0QkksCO4IWQncFoXeaog&quot; style=&quot;&quot;&gt;第X行XXXX单位，单位符号/所属类别未填写，请填写后导入。&lt;/div&gt;&lt;/div&gt;&lt;span class=&quot;lark-record-clipboard&quot; data-lark-record-format=&quot;docx/text&quot; data-lark-record-data=&quot;{&amp;quot;rootId&amp;quot;:&amp;quot;doxcnUg7UYMPqlSIyXwDWfKtBhc&amp;quot;,&amp;quot;text&amp;quot;:{&amp;quot;initialAttributedTexts&amp;quot;:{&amp;quot;text&amp;quot;:{&amp;quot;0&amp;quot;:&amp;quot;第X行XXXX单位，单位符号/所属类别未填写，请填写后导入。&amp;quot;},&amp;quot;attribs&amp;quot;:{&amp;quot;0&amp;quot;:&amp;quot;*0+u&amp;quot;}},&amp;quot;apool&amp;quot;:{&amp;quot;numToAttrib&amp;quot;:{&amp;quot;0&amp;quot;:[&amp;quot;author&amp;quot;,&amp;quot;7049226964187480066&amp;quot;]},&amp;quot;nextNum&amp;quot;:1}},&amp;quot;type&amp;quot;:&amp;quot;text&amp;quot;,&amp;quot;referenceRecordMap&amp;quot;:{},&amp;quot;extra&amp;quot;:{&amp;quot;mention_page_title&amp;quot;:{},&amp;quot;external_mention_url&amp;quot;:{}},&amp;quot;isKeepQuoteContainer&amp;quot;:false,&amp;quot;isFromCode&amp;quot;:false,&amp;quot;selection&amp;quot;:[{&amp;quot;id&amp;quot;:1022,&amp;quot;type&amp;quot;:&amp;quot;text&amp;quot;,&amp;quot;selection&amp;quot;:{&amp;quot;start&amp;quot;:0,&amp;quot;end&amp;quot;:30},&amp;quot;recordId&amp;quot;:&amp;quot;doxcnKc0QkksCO4IWQncFoXeaog&amp;quot;}],&amp;quot;isCut&amp;quot;:false}&quot;&gt;&lt;/span&gt;" style="rounded=0;whiteSpace=wrap;html=1;fillColor=#f8cecc;strokeColor=#b85450;" vertex="1" parent="1">
          <mxGeometry x="360" y="250" width="120" height="60" as="geometry" />
        </mxCell>
        <mxCell id="Ee5MRmjMs7288bCg43-E-52" value="&lt;div data-docx-has-block-data=&quot;false&quot; data-page-id=&quot;doxcnUg7UYMPqlSIyXwDWfKtBhc&quot;&gt;&lt;div class=&quot;ace-line ace-line old-record-id-doxcnWccg8Q4s2kwUeaJdWW6MFd&quot; style=&quot;&quot;&gt;第X行XXXX单位，所属类别不存在，请增加所属类别后导入。&lt;/div&gt;&lt;/div&gt;&lt;span class=&quot;lark-record-clipboard&quot; data-lark-record-format=&quot;docx/text&quot; data-lark-record-data=&quot;{&amp;quot;rootId&amp;quot;:&amp;quot;doxcnUg7UYMPqlSIyXwDWfKtBhc&amp;quot;,&amp;quot;text&amp;quot;:{&amp;quot;initialAttributedTexts&amp;quot;:{&amp;quot;text&amp;quot;:{&amp;quot;0&amp;quot;:&amp;quot;第X行XXXX单位，所属类别不存在，请增加所属类别后导入。&amp;quot;},&amp;quot;attribs&amp;quot;:{&amp;quot;0&amp;quot;:&amp;quot;*0+t&amp;quot;}},&amp;quot;apool&amp;quot;:{&amp;quot;numToAttrib&amp;quot;:{&amp;quot;0&amp;quot;:[&amp;quot;author&amp;quot;,&amp;quot;7049226964187480066&amp;quot;]},&amp;quot;nextNum&amp;quot;:1}},&amp;quot;type&amp;quot;:&amp;quot;text&amp;quot;,&amp;quot;referenceRecordMap&amp;quot;:{},&amp;quot;extra&amp;quot;:{&amp;quot;mention_page_title&amp;quot;:{},&amp;quot;external_mention_url&amp;quot;:{}},&amp;quot;isKeepQuoteContainer&amp;quot;:false,&amp;quot;isFromCode&amp;quot;:false,&amp;quot;selection&amp;quot;:[{&amp;quot;id&amp;quot;:1030,&amp;quot;type&amp;quot;:&amp;quot;text&amp;quot;,&amp;quot;selection&amp;quot;:{&amp;quot;start&amp;quot;:0,&amp;quot;end&amp;quot;:29},&amp;quot;recordId&amp;quot;:&amp;quot;doxcnWccg8Q4s2kwUeaJdWW6MFd&amp;quot;}],&amp;quot;isCut&amp;quot;:false}&quot;&gt;&lt;/span&gt;" style="rounded=0;whiteSpace=wrap;html=1;fillColor=#f8cecc;strokeColor=#b85450;" vertex="1" parent="1">
          <mxGeometry x="650" y="250" width="120" height="60" as="geometry" />
        </mxCell>
        <mxCell id="Ee5MRmjMs7288bCg43-E-54" value="&lt;div data-docx-has-block-data=&quot;false&quot; data-page-id=&quot;doxcnUg7UYMPqlSIyXwDWfKtBhc&quot;&gt;&lt;div class=&quot;ace-line ace-line old-record-id-doxcno6qOMYyiK0uYWARn00Ld2f&quot; style=&quot;&quot;&gt;第X行XXXX单位，备忘字数大于50个字，请修改后再导入。（X为该项目在excel所处行数xxxx为项目名称）&lt;/div&gt;&lt;/div&gt;&lt;span class=&quot;lark-record-clipboard&quot; data-lark-record-format=&quot;docx/text&quot; data-lark-record-data=&quot;{&amp;quot;rootId&amp;quot;:&amp;quot;doxcnUg7UYMPqlSIyXwDWfKtBhc&amp;quot;,&amp;quot;text&amp;quot;:{&amp;quot;initialAttributedTexts&amp;quot;:{&amp;quot;text&amp;quot;:{&amp;quot;0&amp;quot;:&amp;quot;第X行XXXX单位，备忘字数大于50个字，请修改后再导入。（X为该项目在excel所处行数xxxx为项目名称）&amp;quot;},&amp;quot;attribs&amp;quot;:{&amp;quot;0&amp;quot;:&amp;quot;*0+1j&amp;quot;}},&amp;quot;apool&amp;quot;:{&amp;quot;numToAttrib&amp;quot;:{&amp;quot;0&amp;quot;:[&amp;quot;author&amp;quot;,&amp;quot;7049226964187480066&amp;quot;]},&amp;quot;nextNum&amp;quot;:1}},&amp;quot;type&amp;quot;:&amp;quot;text&amp;quot;,&amp;quot;referenceRecordMap&amp;quot;:{},&amp;quot;extra&amp;quot;:{&amp;quot;mention_page_title&amp;quot;:{},&amp;quot;external_mention_url&amp;quot;:{}},&amp;quot;isKeepQuoteContainer&amp;quot;:false,&amp;quot;isFromCode&amp;quot;:false,&amp;quot;selection&amp;quot;:[{&amp;quot;id&amp;quot;:1018,&amp;quot;type&amp;quot;:&amp;quot;text&amp;quot;,&amp;quot;selection&amp;quot;:{&amp;quot;start&amp;quot;:0,&amp;quot;end&amp;quot;:55},&amp;quot;recordId&amp;quot;:&amp;quot;doxcno6qOMYyiK0uYWARn00Ld2f&amp;quot;}],&amp;quot;isCut&amp;quot;:false}&quot;&gt;&lt;/span&gt;" style="rounded=0;whiteSpace=wrap;html=1;fillColor=#f8cecc;strokeColor=#b85450;" vertex="1" parent="1">
          <mxGeometry x="500" y="250" width="120" height="130" as="geometry" />
        </mxCell>
      </root>
    </mxGraphModel>
  </diagram>
</mxfile>
